<svg xmlns="http://www.w3.org/2000/svg" width="1200" height="330" viewBox="0 0 1200 330" role="img" aria-label="LipTrace: traceable CTC lip reading, audit, bundle, replay">
<defs><linearGradient id="bg" x2="1" y2="1"><stop stop-color="#101828"/><stop offset="1" stop-color="#12354b"/></linearGradient></defs>
<rect width="1200" height="330" rx="24" fill="url(#bg)"/>
<g font-family="Segoe UI,Arial,sans-serif"><text x="64" y="104" fill="white" font-size="62" font-weight="700">LipTrace</text><text x="65" y="147" fill="#b7d7e6" font-size="24">Traceable CTC lip-reading</text><text x="65" y="183" fill="#b7d7e6" font-size="21">From dataset contracts to runtime parity</text>
<g fill="#123f51" stroke="#4db8bd"><rect x="65" y="231" width="190" height="49" rx="12"/><rect x="299" y="231" width="190" height="49" rx="12"/><rect x="533" y="231" width="190" height="49" rx="12"/></g>
<g fill="white" font-size="20" text-anchor="middle"><text x="160" y="263">Audit datasets</text><text x="394" y="263">Bind models</text><text x="628" y="263">Replay stages</text></g><g stroke="#80dacf" stroke-width="2"><path d="M263 255h27m-7-6 7 6-7 6M497 255h27m-7-6 7 6-7 6" fill="none"/></g>
<g transform="translate(826 75)"><rect width="295" height="195" rx="15" fill="#0d2031" stroke="#466677"/><text x="22" y="36" fill="#88cfdd" font-size="15">CTC EXECUTION TRACE</text><path d="M22 91h22v-16h32v24h39V67h43v21h26v-25h44v22h42" stroke="#63ddcc" stroke-width="3" fill="none"/><text x="22" y="139" fill="white" font-size="19">frames → logits → transcript</text><text x="22" y="172" fill="#b7d7e6" font-size="16">Identify the first divergence.</text></g></g></svg>
